{
  "accessors": [
    {
      "bufferView": 2,
      "componentType": 5126,
      "count": 72,
      "max": [
        0.13650232553482056,
        -0.019540905952453613,
        0.33352863788604736
      ],
      "min": [
        -0.06164858490228653,
        -0.46954089403152466,
        -0.10290277004241943
      ],
      "type": "VEC3"
    },
    {
      "bufferView": 2,
      "byteOffset": 864,
      "componentType": 5126,
      "count": 72,
      "max": [
        1.0,
        1.0,
        1.0
      ],
      "min": [
        -1.0,
        -1.0,
        -1.0
      ],
      "type": "VEC3"
    },
    {
      "bufferView": 1,
      "componentType": 5126,
      "count": 72,
      "max": [
        0.9841806292533875,
        0.9726241230964661
      ],
      "min": [
        0.015819363296031952,
        0.0158193651586771
      ],
      "type": "VEC2"
    },
    {
      "bufferView": 0,
      "componentType": 5125,
      "count": 108,
      "type": "SCALAR"
    },
    {
      "bufferView": 2,
      "byteOffset": 1728,
      "componentType": 5126,
      "count": 65532,
      "max": [
        0.14066515862941742,
        -0.01905875653028488,
        0.1417723298072815
      ],
      "min": [
        -0.042640067636966705,
        -0.4682001769542694,
        -0.08519654721021652
      ],
      "type": "VEC3"
    },
    {
      "bufferView": 2,
      "byteOffset": 788112,
      "componentType": 5126,
      "count": 65532,
      "max": [
        1.0,
        1.0,
        1.0
      ],
      "min": [
        -1.0,
        -1.0,
        -1.0
      ],
      "type": "VEC3"
    },
    {
      "bufferView": 3,
      "componentType": 5126,
      "count": 65532,
      "max": [
        0.999994695186615,
        1.0,
        0.999812126159668,
        1.0
      ],
      "min": [
        -0.9999949336051941,
        -1.0,
        -0.9997596144676208,
        -1.0
      ],
      "type": "VEC4"
    },
    {
      "bufferView": 1,
      "byteOffset": 576,
      "componentType": 5126,
      "count": 65532,
      "max": [
        0.9869796633720398,
        0.9855971336364746
      ],
      "min": [
        0.0,
        0.0
      ],
      "type": "VEC2"
    },
    {
      "bufferView": 1,
      "byteOffset": 524832,
      "componentType": 5126,
      "count": 65532,
      "max": [
        0.9869796633720398,
        0.9855971336364746
      ],
      "min": [
        0.0,
        0.0
      ],
      "type": "VEC2"
    },
    {
      "bufferView": 0,
      "byteOffset": 432,
      "componentType": 5125,
      "count": 316428,
      "type": "SCALAR"
    },
    {
      "bufferView": 2,
      "byteOffset": 1574496,
      "componentType": 5126,
      "count": 2342,
      "max": [
        0.13527002930641174,
        -0.018958061933517456,
        0.11999098211526871
      ],
      "min": [
        -0.03199692815542221,
        -0.4672466814517975,
        -0.08014723658561707
      ],
      "type": "VEC3"
    },
    {
      "bufferView": 2,
      "byteOffset": 1602600,
      "componentType": 5126,
      "count": 2342,
      "max": [
        0.9999974966049194,
        1.0,
        0.9999974966049194
      ],
      "min": [
        -0.9999974966049194,
        -1.0,
        -0.9999974966049194
      ],
      "type": "VEC3"
    },
    {
      "bufferView": 3,
      "byteOffset": 1048512,
      "componentType": 5126,
      "count": 2342,
      "max": [
        0.998261034488678,
        1.0,
        0.9891743063926697,
        1.0
      ],
      "min": [
        -0.9997447729110718,
        -1.0,
        -0.9970203638076782,
        -1.0
      ],
      "type": "VEC4"
    },
    {
      "bufferView": 1,
      "byteOffset": 1049088,
      "componentType": 5126,
      "count": 2342,
      "max": [
        0.9869796633720398,
        0.9503343105316162
      ],
      "min": [
        0.0,
        0.0
      ],
      "type": "VEC2"
    },
    {
      "bufferView": 1,
      "byteOffset": 1067824,
      "componentType": 5126,
      "count": 2342,
      "max": [
        0.9869796633720398,
        0.9503343105316162
      ],
      "min": [
        0.0,
        0.0
      ],
      "type": "VEC2"
    },
    {
      "bufferView": 0,
      "byteOffset": 1266144,
      "componentType": 5125,
      "count": 7860,
      "type": "SCALAR"
    },
    {
      "bufferView": 2,
      "byteOffset": 1630704,
      "componentType": 5126,
      "count": 72,
      "max": [
        0.13650232553482056,
        -0.019540905952453613,
        -0.07235252857208252
      ],
      "min": [
        -0.06164858490228653,
        -0.46954089403152466,
        -0.5087839365005493
      ],
      "type": "VEC3"
    },
    {
      "bufferView": 2,
      "byteOffset": 1631568,
      "componentType": 5126,
      "count": 72,
      "max": [
        1.0,
        1.0,
        1.0
      ],
      "min": [
        -1.0,
        -1.0,
        -1.0
      ],
      "type": "VEC3"
    },
    {
      "bufferView": 1,
      "byteOffset": 1086560,
      "componentType": 5126,
      "count": 72,
      "max": [
        0.9841806292533875,
        0.9726241230964661
      ],
      "min": [
        0.015819363296031952,
        0.0158193651586771
      ],
      "type": "VEC2"
    },
    {
      "bufferView": 0,
      "byteOffset": 1297584,
      "componentType": 5125,
      "count": 108,
      "type": "SCALAR"
    },
    {
      "bufferView": 2,
      "byteOffset": 1632432,
      "componentType": 5126,
      "count": 65532,
      "max": [
        0.14066515862941742,
        -0.01905875653028488,
        0.1417723298072815
      ],
      "min": [
        -0.042640067636966705,
        -0.4682001769542694,
        -0.08519654721021652
      ],
      "type": "VEC3"
    },
    {
      "bufferView": 2,
      "byteOffset": 2418816,
      "componentType": 5126,
      "count": 65532,
      "max": [
        1.0,
        1.0,
        1.0
      ],
      "min": [
        -1.0,
        -1.0,
        -1.0
      ],
      "type": "VEC3"
    },
    {
      "bufferView": 3,
      "byteOffset": 1085984,
      "componentType": 5126,
      "count": 65532,
      "max": [
        0.999994695186615,
        1.0,
        0.999812126159668,
        1.0
      ],
      "min": [
        -0.9999949336051941,
        -1.0,
        -0.9997596144676208,
        -1.0
      ],
      "type": "VEC4"
    },
    {
      "bufferView": 1,
      "byteOffset": 1087136,
      "componentType": 5126,
      "count": 65532,
      "max": [
        0.9869796633720398,
        0.9855971336364746
      ],
      "min": [
        0.0,
        0.0
      ],
      "type": "VEC2"
    },
    {
      "bufferView": 1,
      "byteOffset": 1611392,
      "componentType": 5126,
      "count": 65532,
      "max": [
        0.9869796633720398,
        0.9855971336364746
      ],
      "min": [
        0.0,
        0.0
      ],
      "type": "VEC2"
    },
    {
      "bufferView": 0,
      "byteOffset": 1298016,
      "componentType": 5125,
      "count": 316428,
      "type": "SCALAR"
    },
    {
      "bufferView": 2,
      "byteOffset": 3205200,
      "componentType": 5126,
      "count": 2342,
      "max": [
        0.13527002930641174,
        -0.018958061933517456,
        0.11999098211526871
      ],
      "min": [
        -0.03199692815542221,
        -0.4672466814517975,
        -0.08014723658561707
      ],
      "type": "VEC3"
    },
    {
      "bufferView": 2,
      "byteOffset": 3233304,
      "componentType": 5126,
      "count": 2342,
      "max": [
        0.9999974966049194,
        1.0,
        0.9999974966049194
      ],
      "min": [
        -0.9999974966049194,
        -1.0,
        -0.9999974966049194
      ],
      "type": "VEC3"
    },
    {
      "bufferView": 3,
      "byteOffset": 2134496,
      "componentType": 5126,
      "count": 2342,
      "max": [
        0.998261034488678,
        1.0,
        0.9891743063926697,
        1.0
      ],
      "min": [
        -0.9997447729110718,
        -1.0,
        -0.9970203638076782,
        -1.0
      ],
      "type": "VEC4"
    },
    {
      "bufferView": 1,
      "byteOffset": 2135648,
      "componentType": 5126,
      "count": 2342,
      "max": [
        0.9869796633720398,
        0.9503343105316162
      ],
      "min": [
        0.0,
        0.0
      ],
      "type": "VEC2"
    },
    {
      "bufferView": 1,
      "byteOffset": 2154384,
      "componentType": 5126,
      "count": 2342,
      "max": [
        0.9869796633720398,
        0.9503343105316162
      ],
      "min": [
        0.0,
        0.0
      ],
      "type": "VEC2"
    },
    {
      "bufferView": 0,
      "byteOffset": 2563728,
      "componentType": 5125,
      "count": 7860,
      "type": "SCALAR"
    },
    {
      "bufferView": 2,
      "byteOffset": 3261408,
      "componentType": 5126,
      "count": 168,
      "max": [
        0.08803027868270874,
        0.24456357955932617,
        0.3845328688621521
      ],
      "min": [
        -0.19200582802295685,
        -0.24456362426280975,
        -0.5257457494735718
      ],
      "type": "VEC3"
    },
    {
      "bufferView": 2,
      "byteOffset": 3263424,
      "componentType": 5126,
      "count": 168,
      "max": [
        1.0,
        1.0,
        1.0
      ],
      "min": [
        -1.0,
        -1.0,
        -1.0
      ],
      "type": "VEC3"
    },
    {
      "bufferView": 1,
      "byteOffset": 2173120,
      "componentType": 5126,
      "count": 168,
      "max": [
        0.9597725868225098,
        0.981551468372345
      ],
      "min": [
        0.01844852790236473,
        0.018448516726493835
      ],
      "type": "VEC2"
    },
    {
      "bufferView": 0,
      "byteOffset": 2595168,
      "componentType": 5125,
      "count": 252,
      "type": "SCALAR"
    },
    {
      "bufferView": 4,
      "componentType": 5126,
      "count": 9,
      "max": [
        1.0,
        0.0,
        0.0,
        0.0,
        0.0,
        1.0,
        0.0,
        0.0,
        0.0,
        0.0,
        1.0,
        0.0,
        0.0,
        0.0,
        0.0,
        1.0
      ],
      "min": [
        1.0,
        0.0,
        0.0,
        0.0,
        0.0,
        1.0,
        0.0,
        0.0,
        0.0,
        0.0,
        1.0,
        0.0,
        0.0,
        0.0,
        0.0,
        1.0
      ],
      "type": "MAT4"
    },
    {
      "bufferView": 5,
      "componentType": 5126,
      "count": 204,
      "max": [
        5.0
      ],
      "min": [
        0.4166666567325592
      ],
      "type": "SCALAR"
    },
    {
      "bufferView": 6,
      "componentType": 5126,
      "count": 204,
      "max": [
        -0.500464916229248,
        2.095308637706239e-08,
        0.4995346665382385,
        0.7071067094802856
      ],
      "min": [
        -0.7071068286895752,
        -0.4995347261428833,
        2.095308992977607e-08,
        0.5004647970199585
      ],
      "type": "VEC4"
    },
    {
      "bufferView": 5,
      "byteOffset": 816,
      "componentType": 5126,
      "count": 204,
      "max": [
        6.875
      ],
      "min": [
        2.2916667461395264
      ],
      "type": "SCALAR"
    },
    {
      "bufferView": 6,
      "byteOffset": 3264,
      "componentType": 5126,
      "count": 204,
      "max": [
        -0.5004647374153137,
        9.35847858855123e-24,
        0.49953484535217285,
        0.7071068286895752
      ],
      "min": [
        -0.7071067690849304,
        -0.49953481554985046,
        -9.358482532855756e-24,
        0.5004647374153137
      ],
      "type": "VEC4"
    }
  ],
  "animations": [
    {
      "channels": [
        {
          "sampler": 0,
          "target": {
            "node": 9,
            "path": "rotation"
          }
        },
        {
          "sampler": 1,
          "target": {
            "node": 17,
            "path": "rotation"
          }
        }
      ],
      "name": "Scene",
      "samplers": [
        {
          "input": 37,
          "interpolation": "LINEAR",
          "output": 38
        },
        {
          "input": 39,
          "interpolation": "LINEAR",
          "output": 40
        }
      ]
    }
  ],
  "asset": {
    "extras": {
      "author": "Greg.T.Finnie (https://sketchfab.com/Greg.T.Finnie)",
      "license": "CC-BY-4.0 (http://creativecommons.org/licenses/by/4.0/)",
      "source": "https://sketchfab.com/3d-models/ikea-bissa-shoe-storage-rigged-db7c3ac0100e406ba439fd66a99b86df",
      "title": "Ikea Bissa Shoe Storage Rigged"
    },
    "generator": "Sketchfab-13.23.0",
    "version": "2.0"
  },
  "bufferViews": [
    {
      "buffer": 0,
      "byteLength": 2596176,
      "name": "floatBufferViews",
      "target": 34963
    },
    {
      "buffer": 0,
      "byteLength": 2174464,
      "byteOffset": 2596176,
      "byteStride": 8,
      "name": "floatBufferViews",
      "target": 34962
    },
    {
      "buffer": 0,
      "byteLength": 3265440,
      "byteOffset": 4770640,
      "byteStride": 12,
      "name": "floatBufferViews",
      "target": 34962
    },
    {
      "buffer": 0,
      "byteLength": 2171968,
      "byteOffset": 8036080,
      "byteStride": 16,
      "name": "floatBufferViews",
      "target": 34962
    },
    {
      "buffer": 0,
      "byteLength": 576,
      "byteOffset": 10208048,
      "name": "floatBufferViews"
    },
    {
      "buffer": 0,
      "byteLength": 1632,
      "byteOffset": 10208624,
      "name": "floatBufferViews"
    },
    {
      "buffer": 0,
      "byteLength": 6528,
      "byteOffset": 10210256,
      "byteStride": 16,
      "name": "floatBufferViews"
    }
  ],
  "buffers": [
    {
      "byteLength": 10216784,
      "uri": "scene.bin"
    }
  ],
  "images": [
    {
      "uri": "textures/BissablackDoor_baseColor.png"
    },
    {
      "uri": "textures/BissablackDoor_metallicRoughness.png"
    },
    {
      "uri": "textures/Scratched_plastic_baseColor.png"
    },
    {
      "uri": "textures/Scratched_plastic_metallicRoughness.png"
    },
    {
      "uri": "textures/Scratched_plastic_normal.png"
    },
    {
      "uri": "textures/Bissablackbody_metallicRoughness.png"
    }
  ],
  "materials": [
    {
      "doubleSided": true,
      "name": "BissablackDoor",
      "pbrMetallicRoughness": {
        "baseColorTexture": {
          "index": 0
        },
        "metallicFactor": 0.0,
        "metallicRoughnessTexture": {
          "index": 1
        }
      }
    },
    {
      "doubleSided": true,
      "name": "Scratched_plastic",
      "normalTexture": {
        "index": 4,
        "scale": 0.10819080591483707
      },
      "pbrMetallicRoughness": {
        "baseColorTexture": {
          "index": 2
        },
        "metallicFactor": 0.0,
        "metallicRoughnessTexture": {
          "index": 3
        }
      }
    },
    {
      "doubleSided": true,
      "name": "Bissablackbody",
      "pbrMetallicRoughness": {
        "baseColorTexture": {
          "index": 0
        },
        "metallicFactor": 0.0,
        "metallicRoughnessTexture": {
          "index": 5
        }
      }
    }
  ],
  "meshes": [
    {
      "name": "Open_BissablackDoor_0",
      "primitives": [
        {
          "attributes": {
            "NORMAL": 1,
            "POSITION": 0,
            "TEXCOORD_0": 2
          },
          "indices": 3,
          "material": 0,
          "mode": 4
        }
      ]
    },
    {
      "name": "Bracket_Scratched plastic_0",
      "primitives": [
        {
          "attributes": {
            "NORMAL": 5,
            "POSITION": 4,
            "TANGENT": 6,
            "TEXCOORD_0": 7,
            "TEXCOORD_1": 8
          },
          "indices": 9,
          "material": 1,
          "mode": 4
        }
      ]
    },
    {
      "name": "Bracket_Scratched plastic_0",
      "primitives": [
        {
          "attributes": {
            "NORMAL": 11,
            "POSITION": 10,
            "TANGENT": 12,
            "TEXCOORD_0": 13,
            "TEXCOORD_1": 14
          },
          "indices": 15,
          "material": 1,
          "mode": 4
        }
      ]
    },
    {
      "name": "Open.001_BissablackDoor_0",
      "primitives": [
        {
          "attributes": {
            "NORMAL": 17,
            "POSITION": 16,
            "TEXCOORD_0": 18
          },
          "indices": 19,
          "material": 0,
          "mode": 4
        }
      ]
    },
    {
      "name": "Bracket.001_Scratched plastic_0",
      "primitives": [
        {
          "attributes": {
            "NORMAL": 21,
            "POSITION": 20,
            "TANGENT": 22,
            "TEXCOORD_0": 23,
            "TEXCOORD_1": 24
          },
          "indices": 25,
          "material": 1,
          "mode": 4
        }
      ]
    },
    {
      "name": "Bracket.001_Scratched plastic_0",
      "primitives": [
        {
          "attributes": {
            "NORMAL": 27,
            "POSITION": 26,
            "TANGENT": 28,
            "TEXCOORD_0": 29,
            "TEXCOORD_1": 30
          },
          "indices": 31,
          "material": 1,
          "mode": 4
        }
      ]
    },
    {
      "name": "Cube.011_Bissablackbody_0",
      "primitives": [
        {
          "attributes": {
            "NORMAL": 33,
            "POSITION": 32,
            "TEXCOORD_0": 34
          },
          "indices": 35,
          "material": 2,
          "mode": 4
        }
      ]
    }
  ],
  "nodes": [
    {
      "children": [
        1
      ],
      "matrix": [
        3.736072301864624,
        0.0,
        0.0,
        0.0,
        0.0,
        8.295746982388828e-16,
        -3.736072301864624,
        0.0,
        0.0,
        3.736072301864624,
        8.295746982388828e-16,
        0.0,
        0.0,
        0.0,
        0.0,
        1.0
      ],
      "name": "Sketchfab_model"
    },
    {
      "children": [
        2
      ],
      "matrix": [
        0.009999999776482582,
        0.0,
        0.0,
        0.0,
        0.0,
        0.0,
        0.009999999776482582,
        0.0,
        0.0,
        -0.009999999776482582,
        0.0,
        0.0,
        0.0,
        0.0,
        0.0,
        1.0
      ],
      "name": "57e7ba74a52248ff9cc6eab49c568d2b.fbx"
    },
    {
      "children": [
        3
      ],
      "name": "Object_2"
    },
    {
      "children": [
        4
      ],
      "name": "RootNode"
    },
    {
      "children": [
        5
      ],
      "name": "WholeBody",
      "rotation": [
        -3.090862321641907e-08,
        0.7071068286895752,
        0.7071067094802856,
        -3.0908616110991716e-08
      ],
      "scale": [
        100.0,
        100.0,
        100.0
      ],
      "translation": [
        -17.696971893310547,
        -20.93981170654297,
        -23.456357955932617
      ]
    },
    {
      "children": [
        6,
        25
      ],
      "name": "Object_5"
    },
    {
      "children": [
        7
      ],
      "name": "_rootJoint"
    },
    {
      "children": [
        8,
        9,
        17
      ],
      "name": "Bone_02",
      "rotation": [
        0.7071068286895752,
        4.67923850541471e-24,
        -4.679241660858331e-24,
        0.7071067094802856
      ]
    },
    {
      "name": "Bone_end_05",
      "rotation": [
        -2.6469779601696886e-23,
        -2.3086020680657885e-30,
        -6.617444900424222e-24,
        1.0
      ],
      "translation": [
        2.7755575615628914e-17,
        1.0,
        5.551115123125783e-17
      ]
    },
    {
      "children": [
        10,
        12,
        14
      ],
      "name": "Drawer1.001_00",
      "rotation": [
        -0.5028390884399414,
        -0.4971449077129364,
        0.4971448481082916,
        0.5028389692306519
      ],
      "translation": [
        -0.1265661120414734,
        0.5356467962265015,
        -2.467632293701172e-05
      ]
    },
    {
      "children": [
        11
      ],
      "name": "Bone_03",
      "rotation": [
        1.0,
        -1.8932529765387958e-14,
        -4.331257628109597e-07,
        -4.371138828673793e-08
      ],
      "translation": [
        -0.07956112176179886,
        0.08237277716398239,
        0.20569801330566406
      ]
    },
    {
      "name": "Bone_end_06",
      "rotation": [
        6.617444900424222e-24,
        -6.235291076339903e-19,
        -5.293955920339377e-23,
        1.0
      ],
      "translation": [
        2.7755575615628914e-17,
        0.1578081250190735,
        0.0
      ]
    },
    {
      "children": [
        13
      ],
      "name": "Open",
      "rotation": [
        0.0,
        4.279699688086959e-20,
        0.0,
        1.0
      ],
      "translation": [
        -0.00016810366651043296,
        0.24451616406440735,
        8.95969569683075e-05
      ]
    },
    {
      "mesh": 0,
      "name": "Open_BissablackDoor_0"
    },
    {
      "children": [
        15,
        16
      ],
      "name": "Bracket",
      "rotation": [
        0.0,
        4.279699688086959e-20,
        0.0,
        1.0
      ],
      "translation": [
        -0.00016810366651043296,
        0.24355444312095642,
        8.95969569683075e-05
      ]
    },
    {
      "mesh": 1,
      "name": "Bracket_Scratched plastic_0"
    },
    {
      "mesh": 2,
      "name": "Bracket_Scratched plastic_0"
    },
    {
      "children": [
        18,
        20,
        22
      ],
      "name": "Drawer2.001_01",
      "rotation": [
        -0.6398395895957947,
        -0.30100712180137634,
        0.30100715160369873,
        0.6398396492004395
      ],
      "scale": [
        0.9999999403953552,
        1.0,
        0.9999999403953552
      ],
      "translation": [
        -0.1265661120414734,
        0.12963402271270752,
        -2.467632293701172e-05
      ]
    },
    {
      "children": [
        19
      ],
      "name": "Bone_04",
      "rotation": [
        1.0,
        -1.8932529765387958e-14,
        -4.331257628109597e-07,
        -4.371138828673793e-08
      ],
      "translation": [
        -0.07956112176179886,
        0.08237277716398239,
        0.20569801330566406
      ]
    },
    {
      "name": "Bone_end_07",
      "rotation": [
        1.3350268560515035e-39,
        -5.043587870382032e-17,
        2.6469779601696886e-23,
        1.0
      ],
      "translation": [
        -1.3877787807814457e-17,
        0.1578081250190735,
        1.3877787807814457e-17
      ]
    },
    {
      "children": [
        21
      ],
      "name": "Open.001",
      "rotation": [
        2.6469779601696886e-23,
        1.4901159417490817e-08,
        -2.6469776446253265e-23,
        1.0
      ],
      "scale": [
        1.0000001192092896,
        1.0,
        1.0000001192092896
      ],
      "translation": [
        -0.00016808509826660156,
        0.24451619386672974,
        0.40610238909721375
      ]
    },
    {
      "mesh": 3,
      "name": "Open.001_BissablackDoor_0"
    },
    {
      "children": [
        23,
        24
      ],
      "name": "Bracket.001",
      "rotation": [
        2.6469779601696886e-23,
        1.4901159417490817e-08,
        -2.6469776446253265e-23,
        1.0
      ],
      "scale": [
        1.0000001192092896,
        1.0,
        1.0000001192092896
      ],
      "translation": [
        -0.0001681111752986908,
        0.2435544729232788,
        -3.239139914512634e-05
      ]
    },
    {
      "mesh": 4,
      "name": "Bracket.001_Scratched plastic_0"
    },
    {
      "mesh": 5,
      "name": "Bracket.001_Scratched plastic_0"
    },
    {
      "children": [
        26
      ],
      "name": "Cube.011",
      "rotation": [
        1.3234889800848443e-23,
        6.617444900424222e-24,
        -1.5461785009925103e-30,
        1.0
      ],
      "translation": [
        0.0,
        2.7755575615628914e-17,
        0.5226319432258606
      ]
    },
    {
      "mesh": 6,
      "name": "Cube.011_Bissablackbody_0"
    }
  ],
  "samplers": [
    {
      "magFilter": 9729,
      "minFilter": 9987,
      "wrapS": 10497,
      "wrapT": 10497
    }
  ],
  "scene": 0,
  "scenes": [
    {
      "name": "Sketchfab_Scene",
      "nodes": [
        0
      ]
    }
  ],
  "skins": [
    {
      "inverseBindMatrices": 36,
      "joints": [
        6,
        7,
        8,
        9,
        10,
        11,
        17,
        18,
        19
      ],
      "skeleton": 6
    }
  ],
  "textures": [
    {
      "sampler": 0,
      "source": 0
    },
    {
      "sampler": 0,
      "source": 1
    },
    {
      "sampler": 0,
      "source": 2
    },
    {
      "sampler": 0,
      "source": 3
    },
    {
      "sampler": 0,
      "source": 4
    },
    {
      "sampler": 0,
      "source": 5
    }
  ]
}
