<svg width="422" height="299" viewBox="0 0 422 299" fill="none" xmlns="http://www.w3.org/2000/svg">
<rect y="22" width="347" height="276" fill="#3C008A"/>
<path d="M0 0H142.5L161 22H0V0Z" fill="#3C008A"/>
<path d="M14 53C14 47.4771 18.4772 43 24 43H324C329.523 43 334 47.4772 334 53V297.524H14V53Z" fill="#460A94"/>
<path d="M82 66H163L85 298H0L82 66Z" fill="#6F2DBD"/>
<path d="M162.5 66H81.5L159.5 298H244.5L162.5 66Z" fill="#6F2DBD"/>
<rect x="179.5" y="229" width="168" height="69" fill="#6F2DBD"/>
<path d="M209 147H395.5L373.5 216H232L209 147Z" fill="#6F2DBD"/>
<path d="M24 230H122L144 298.5L0 298L24 230Z" fill="#6F2DBD"/>
<path d="M179.5 66H421.5L399.5 135H204L179.5 66Z" fill="#6F2DBD"/>
<path d="M319 154.5H392.5L347.5 298H267.5L319 154.5Z" fill="#6F2DBD"/>
<path d="M82 66H117.5L105 104.5H68.5L82 66Z" fill="#8C4ADA"/>
<path d="M104.5 104H140L127.5 142.5H91L104.5 104Z" fill="#8C4ADA"/>
<path d="M55.5 142H91L78.5 180.5H42L55.5 142Z" fill="#8C4ADA"/>
<path d="M78.5 180H114L101.5 218.5H65L78.5 180Z" fill="#8C4ADA"/>
<path d="M27 222H100.5L78 298H0L27 222Z" fill="#8C4ADA"/>
</svg>
